<svg width="85" height="33" viewBox="0 0 85 33" fill="none" xmlns="http://www.w3.org/2000/svg">
<path d="M29.4114 0H3.03662V23.9931H29.4114V0Z" fill="#FFF200"/>
<path d="M6.69637 15.2687L5.75121 18.0924H4.53613L7.62839 9.11548H9.04636L12.1522 18.0924H10.8964L9.92404 15.2687H6.69637ZM9.68039 14.363L8.78913 11.7793C8.58669 11.1933 8.45173 10.6607 8.31632 10.1412H8.28915C8.15419 10.6738 8.00564 11.22 7.82993 11.7662L6.93865 14.3634H9.68039V14.363Z" fill="#3E3F41"/>
<path d="M14.1645 9.23493C14.7587 9.11491 15.6092 9.04834 16.4194 9.04834C17.6752 9.04834 18.4854 9.27478 19.0524 9.7811C19.5117 10.1805 19.768 10.7933 19.768 11.4862C19.768 12.6714 19.0117 13.4576 18.0529 13.7769V13.8167C18.7549 14.0563 19.1738 14.6957 19.3898 15.6282C19.6869 16.8804 19.9029 17.7459 20.0918 18.0923H18.8767C18.7282 17.8392 18.5257 17.0666 18.269 15.948C17.999 14.7093 17.5127 14.2429 16.4461 14.203H15.3388V18.0923H14.1641V9.23493H14.1645ZM15.3393 13.324H16.5412C17.7971 13.324 18.5937 12.6447 18.5937 11.6189C18.5937 10.46 17.7432 9.9541 16.5009 9.94051C15.9339 9.94051 15.5286 9.99395 15.3397 10.0474V13.324H15.3393Z" fill="#3E3F41"/>
<path d="M23.955 10.1005H21.187V9.11499H27.925V10.1005H25.1434V18.092H23.955V10.1005Z" fill="#3E3F41"/>
<path d="M40.0793 17.6925C39.5526 17.8791 38.5128 18.1852 37.2842 18.1852C35.907 18.1852 34.7725 17.8388 33.8812 16.9996C33.0982 16.2537 32.6118 15.0549 32.6118 13.6565C32.6254 10.9795 34.4885 9.02124 37.5405 9.02124C38.5939 9.02124 39.4172 9.24768 39.809 9.43381L39.5255 10.3799C39.0395 10.1666 38.4318 9.99357 37.5133 9.99357C35.2987 9.99357 33.8541 11.3522 33.8541 13.603C33.8541 15.8805 35.2449 17.2261 37.3648 17.2261C38.1342 17.2261 38.6609 17.1196 38.9313 16.9865V14.3095H37.0813V13.377H40.0789V17.6925H40.0793Z" fill="white"/>
<path d="M44.0235 15.2687L43.0784 18.0924H41.8633L44.9555 9.11548H46.3735L49.4794 18.0924H48.2235L47.2512 15.2687H44.0235ZM47.0075 14.363L46.1163 11.7793C45.9138 11.1933 45.7789 10.6607 45.6435 10.1412H45.6163C45.4813 10.6738 45.3328 11.22 45.1571 11.7662L44.2658 14.3634H47.0075V14.363Z" fill="white"/>
<path d="M51.4922 9.11499H52.667V17.1201H56.5558V18.0924H51.4922V9.11499Z" fill="white"/>
<path d="M63.2542 13.8834H59.7163V17.1201H63.659V18.0924H58.5415V9.11499H63.4566V10.0873H59.7163V12.9242H63.2542V13.8834Z" fill="white"/>
<path d="M65.8613 9.23493C66.4555 9.11491 67.306 9.04834 68.1162 9.04834C69.372 9.04834 70.1822 9.27478 70.7492 9.7811C71.2084 10.1805 71.4648 10.7933 71.4648 11.4862C71.4648 12.6714 70.7085 13.4576 69.7497 13.7769V13.8167C70.4517 14.0563 70.8706 14.6957 71.0866 15.6282C71.3837 16.8804 71.5997 17.7459 71.7886 18.0923H70.5735C70.425 17.8392 70.2225 17.0666 69.9657 15.948C69.6958 14.7093 69.2094 14.2429 68.1429 14.203H67.0356V18.0923H65.8608V9.23493H65.8613ZM67.0361 13.324H68.238C69.4938 13.324 70.2905 12.6447 70.2905 11.6189C70.2905 10.46 69.4399 9.9541 68.1972 9.94051C67.6302 9.94051 67.2249 9.99395 67.0361 10.0474V13.324Z" fill="white"/>
<path d="M75.679 18.0924V14.2828L72.8027 9.11499H74.1396L75.4226 11.5922C75.7736 12.2716 76.044 12.8177 76.3275 13.4436H76.3547C76.611 12.8576 76.9217 12.2716 77.2726 11.5922L78.5824 9.11499H79.9193L76.8678 14.2697V18.0924H75.679Z" fill="white"/>
<path d="M30.4068 27.5426C30.6699 27.7025 31.0553 27.8356 31.4602 27.8356C32.0612 27.8356 32.4126 27.5227 32.4126 27.0698C32.4126 26.6504 32.1699 26.4104 31.5553 26.1776C30.8121 25.9181 30.3529 25.5386 30.3529 24.906C30.3529 24.2067 30.9403 23.6873 31.8248 23.6873C32.2908 23.6873 32.6286 23.7937 32.8311 23.9069L32.6689 24.3797C32.5199 24.3 32.2161 24.1669 31.8044 24.1669C31.183 24.1669 30.9466 24.5332 30.9466 24.8394C30.9466 25.2587 31.2233 25.4653 31.8515 25.7048C32.6214 25.9978 33.0131 26.3642 33.0131 27.0232C33.0131 27.7156 32.4932 28.3148 31.419 28.3148C30.9802 28.3148 30.5006 28.1884 30.2578 28.0286L30.4068 27.5426Z" fill="white"/>
<path d="M34.8897 26.8367L34.4169 28.2483H33.8091L35.3557 23.7607H36.0649L37.6183 28.2483H36.9901L36.5037 26.8367H34.8897ZM36.3819 26.3843L35.9363 25.0927C35.8353 24.7996 35.7673 24.5334 35.6999 24.2739H35.6863C35.6188 24.5401 35.5445 24.8132 35.4567 25.0859L35.011 26.3843H36.3819Z" fill="white"/>
<path d="M38.6226 28.2483V23.7607H39.2643L40.7235 26.031C41.0608 26.5568 41.324 27.0296 41.5405 27.4893L41.554 27.483C41.5001 26.8838 41.4866 26.3376 41.4866 25.6384V23.7607H42.0404V28.2483H41.4463L40.0007 25.9712C39.6832 25.4717 39.3798 24.9591 39.1497 24.4731L39.1298 24.4799C39.1633 25.0456 39.1769 25.5854 39.1769 26.3308V28.2483H38.6226Z" fill="white"/>
<path d="M45.1704 23.7607H47.6218V24.2467H45.7582V25.738H47.4806V26.2176H45.7582V28.2483H45.1709V23.7607H45.1704Z" fill="white"/>
<path d="M48.7959 23.8203C49.093 23.7606 49.5182 23.7271 49.9236 23.7271C50.5517 23.7271 50.957 23.8403 51.2405 24.093C51.4702 24.2927 51.5983 24.5993 51.5983 24.9453C51.5983 25.5381 51.2202 25.9308 50.741 26.0906V26.1106C51.092 26.2306 51.3012 26.5503 51.4095 27.0163C51.558 27.6422 51.6658 28.0751 51.7609 28.2481H51.1527C51.0784 28.1218 50.9774 27.7355 50.8488 27.1762C50.7138 26.5571 50.4706 26.3239 49.9371 26.3039H49.3833V28.2481H48.7959V23.8203ZM49.3833 25.8646H49.9842C50.6124 25.8646 51.0105 25.525 51.0105 25.0123C51.0105 24.4331 50.5852 24.1799 49.9639 24.1736C49.6804 24.1736 49.4775 24.2003 49.3833 24.2266V25.8646Z" fill="white"/>
<path d="M53.5352 26.8367L53.0623 28.2483H52.4546L54.0012 23.7607H54.7104L56.2637 28.2483H55.6356L55.1492 26.8367H53.5352ZM55.0274 26.3843L54.5818 25.0927C54.4808 24.7996 54.4128 24.5334 54.3454 24.2739H54.3318C54.2643 24.5401 54.19 24.8132 54.1022 25.0859L53.6565 26.3843H55.0274Z" fill="white"/>
<path d="M57.2681 28.2483V23.7607H57.9098L59.369 26.031C59.7064 26.5568 59.9695 27.0296 60.186 27.4893L60.1995 27.483C60.1457 26.8838 60.1321 26.3376 60.1321 25.6384V23.7607H60.6859V28.2483H60.0918L58.6462 25.9712C58.3287 25.4717 58.0253 24.9591 57.7952 24.4731L57.7753 24.4799C57.8088 25.0456 57.8224 25.5854 57.8224 26.3308V28.2483H57.2681Z" fill="white"/>
<path d="M65.2288 28.1019C65.0127 28.2083 64.5807 28.3148 64.0264 28.3148C62.7434 28.3148 61.7778 27.5159 61.7778 26.044C61.7778 24.6392 62.7434 23.6873 64.155 23.6873C64.722 23.6873 65.0802 23.8073 65.2356 23.887L65.0938 24.3598C64.871 24.2534 64.5531 24.1736 64.1754 24.1736C63.1079 24.1736 62.3992 24.8462 62.3992 26.0246C62.3992 27.1232 63.0409 27.8288 64.1486 27.8288C64.5064 27.8288 64.871 27.7555 65.1074 27.6422L65.2288 28.1019Z" fill="white"/>
<path d="M66.8887 23.7607V28.2483H66.3013V23.7607H66.8887Z" fill="white"/>
<path d="M68.1705 27.5426C68.4336 27.7025 68.8186 27.8356 69.2239 27.8356C69.8248 27.8356 70.1763 27.5227 70.1763 27.0698C70.1763 26.6504 69.9335 26.4104 69.319 26.1776C68.5758 25.9181 68.1166 25.5386 68.1166 24.906C68.1166 24.2067 68.704 23.6873 69.5884 23.6873C70.0545 23.6873 70.3923 23.7937 70.5947 23.9069L70.4326 24.3797C70.2836 24.3 69.9797 24.1669 69.5681 24.1669C68.9467 24.1669 68.7103 24.5332 68.7103 24.8394C68.7103 25.2587 68.987 25.4653 69.6152 25.7048C70.3851 25.9978 70.7768 26.3642 70.7768 27.0232C70.7768 27.7156 70.2569 28.3148 69.1827 28.3148C68.7438 28.3148 68.2642 28.1884 68.0215 28.0286L68.1705 27.5426Z" fill="white"/>
<path d="M75.0984 28.1019C74.8824 28.2083 74.4503 28.3148 73.896 28.3148C72.613 28.3148 71.6475 27.5159 71.6475 26.044C71.6475 24.6392 72.613 23.6873 74.0242 23.6873C74.5912 23.6873 74.9494 23.8073 75.1047 23.887L74.963 24.3598C74.7402 24.2534 74.4223 24.1736 74.0445 24.1736C72.9771 24.1736 72.2684 24.8462 72.2684 26.0246C72.2684 27.1232 72.9101 27.8288 74.0178 27.8288C74.3756 27.8288 74.7402 27.7555 74.9766 27.6422L75.0984 28.1019Z" fill="white"/>
<path d="M79.9185 25.958C79.9185 27.5023 78.9661 28.3216 77.8049 28.3216C76.6025 28.3216 75.7588 27.4027 75.7588 26.0445C75.7588 24.6198 76.6569 23.6877 77.8724 23.6877C79.1151 23.6873 79.9185 24.6261 79.9185 25.958ZM76.3869 26.0309C76.3869 26.9897 76.9136 27.8488 77.8384 27.8488C78.7709 27.8488 79.2976 27.0033 79.2976 25.9847C79.2976 25.0926 78.8248 24.1605 77.8457 24.1605C76.8729 24.1601 76.3869 25.0455 76.3869 26.0309Z" fill="white"/>
<path d="M37.0531 32.3354H32.5234V32.9079H37.0531V32.3354Z" fill="white"/>
<path d="M80.5747 15.4359H84.3853V2.28247H0.385254V26.3684H28.4429" stroke="white" stroke-width="0.7702" stroke-miterlimit="10"/>
</svg>
